<svg id="그룹_10" data-name="그룹 10" xmlns="http://www.w3.org/2000/svg" width="195.595" height="27.395" viewBox="0 0 195.595 27.395">
  <path id="패스_4" data-name="패스 4" d="M0,0V26.955H16.837V21.836H6.119V0Z" fill="#835fed"/>
  <path id="패스_5" data-name="패스 5" d="M24.6,19.116c.2,2.52,2.68,3.72,5.518,3.72a17.227,17.227,0,0,0,5.4-.8l.8,4.119a19.3,19.3,0,0,1-7.08,1.2C22.6,27.355,18.8,23.516,18.8,17.4c0-4.959,3.079-10.438,9.878-10.438,6.319,0,8.719,4.92,8.719,9.759a14.283,14.283,0,0,1-.2,2.4Zm7.159-4.159c0-1.479-.641-3.959-3.439-3.959-2.56,0-3.6,2.319-3.76,3.959Z" fill="#835fed"/>
  <path id="패스_6" data-name="패스 6" d="M52.157,26.955,51.8,25h-.12a7.045,7.045,0,0,1-5.6,2.4,5.994,5.994,0,0,1-6.319-6c0-5.08,4.56-7.52,11.478-7.48v-.279c0-1.04-.56-2.52-3.559-2.52a10.994,10.994,0,0,0-5.4,1.48L41.16,8.678a16.135,16.135,0,0,1,7.6-1.72c6.52,0,8.6,3.84,8.6,8.44v6.8a30.3,30.3,0,0,0,.28,4.759Zm-.719-9.238c-3.2-.04-5.68.72-5.68,3.079a2.184,2.184,0,0,0,2.4,2.319,3.32,3.32,0,0,0,3.159-2.239,4.353,4.353,0,0,0,.121-1.04Z" fill="#835fed"/>
  <path id="패스_7" data-name="패스 7" d="M62.119,21.636a11.881,11.881,0,0,0,5.239,1.479c1.84,0,2.6-.639,2.6-1.639s-.6-1.48-2.879-2.239c-4.04-1.36-5.6-3.56-5.56-5.879,0-3.64,3.12-6.4,7.959-6.4A13.129,13.129,0,0,1,75,8.078l-1.079,4.2a9.6,9.6,0,0,0-4.239-1.12c-1.481,0-2.321.6-2.321,1.6,0,.92.76,1.4,3.16,2.239,3.719,1.281,5.279,3.16,5.319,6.039,0,3.64-2.879,6.32-8.479,6.32A13.839,13.839,0,0,1,61.04,26Z" fill="#835fed"/>
  <path id="패스_8" data-name="패스 8" d="M84.2,19.116c.2,2.52,2.68,3.72,5.518,3.72a17.227,17.227,0,0,0,5.4-.8l.8,4.119a19.3,19.3,0,0,1-7.08,1.2C82.2,27.355,78.4,23.516,78.4,17.4c0-4.959,3.079-10.438,9.878-10.438C94.6,6.958,97,11.878,97,16.717a14.283,14.283,0,0,1-.2,2.4Zm7.159-4.159c0-1.479-.641-3.959-3.439-3.959-2.56,0-3.6,2.319-3.76,3.959Z" fill="#835fed"/>
  <path id="패스_9" data-name="패스 9" d="M107.2,26.955,98.559,0h6.68l3.279,11.4c.92,3.2,1.76,6.28,2.4,9.639h.12c.68-3.239,1.52-6.439,2.44-9.519L116.916,0h6.48l-9.079,26.955Z" fill="#4fc0c4"/>
  <path id="패스_10" data-name="패스 10" d="M129.117,19.116c.2,2.52,2.68,3.72,5.519,3.72a17.227,17.227,0,0,0,5.4-.8l.8,4.119a19.307,19.307,0,0,1-7.08,1.2c-6.638,0-10.438-3.839-10.438-9.959,0-4.959,3.08-10.438,9.879-10.438,6.318,0,8.718,4.92,8.718,9.759a14.307,14.307,0,0,1-.2,2.4Zm7.159-4.159c0-1.479-.64-3.959-3.439-3.959-2.56,0-3.6,2.319-3.76,3.959Z" fill="#4fc0c4"/>
  <path id="패스_11" data-name="패스 11" d="M145.559,13.837c0-2.879-.08-4.759-.16-6.438h5.239l.2,3.6H151a5.744,5.744,0,0,1,5.279-4.04,6.266,6.266,0,0,1,1.28.08v5.72a8.716,8.716,0,0,0-1.64-.16,3.907,3.907,0,0,0-4.159,3.079,7.169,7.169,0,0,0-.12,1.36v9.918h-6.079Z" fill="#4fc0c4"/>
  <path id="패스_12" data-name="패스 12" d="M160.718,21.636a11.881,11.881,0,0,0,5.239,1.479c1.84,0,2.6-.639,2.6-1.639s-.6-1.48-2.88-2.239c-4.039-1.36-5.6-3.56-5.559-5.879,0-3.64,3.12-6.4,7.958-6.4a13.134,13.134,0,0,1,5.52,1.12l-1.08,4.2a9.6,9.6,0,0,0-4.239-1.12c-1.48,0-2.32.6-2.32,1.6,0,.92.76,1.4,3.159,2.239,3.72,1.281,5.28,3.16,5.32,6.039,0,3.64-2.88,6.32-8.479,6.32A13.844,13.844,0,0,1,159.638,26Z" fill="#4fc0c4"/>
  <path id="패스_13" data-name="패스 13" d="M182.8,19.116c.2,2.52,2.68,3.72,5.518,3.72a17.227,17.227,0,0,0,5.4-.8l.8,4.119a19.3,19.3,0,0,1-7.08,1.2C180.8,27.355,177,23.516,177,17.4c0-4.959,3.079-10.438,9.878-10.438,6.319,0,8.719,4.92,8.719,9.759a14.282,14.282,0,0,1-.2,2.4Zm7.159-4.159c0-1.479-.641-3.959-3.439-3.959-2.56,0-3.6,2.319-3.76,3.959Z" fill="#4fc0c4"/>
</svg>
