<svg width="180" height="44" viewBox="0 0 180 44" fill="none" xmlns="http://www.w3.org/2000/svg">
<path d="M106.167 23.2435H98.3447V19.4213C98.8715 19.5578 99.5109 19.6722 100.161 19.6722H105.691V17.4696H100.143C99.4128 17.4696 98.8061 17.4179 98.3447 17.3626V13.8835H106.108V11.6846H95.7544V23.5534C95.7544 24.996 96.4374 25.4424 97.4655 25.4424H106.145C107.758 25.4424 109.291 24.7525 109.291 24.7525L108.964 22.9631C108.964 22.9631 107.903 23.2472 106.167 23.2472V23.2435Z" fill="#000000"/>
<path d="M134.882 10.7104H132.292V26.741H134.882V10.7104Z" fill="#000000"/>
<path d="M127.841 26.741H130.428V10.7104H127.841V16.3589H125.04V18.5542H127.841V26.741Z" fill="#000000"/>
<path d="M67.4025 10.7104H64.8086V32.4227H67.4025V19.7569H71.0065V17.5617H67.4025V10.7104Z" fill="#000000"/>
<path d="M91.5222 10.7104H88.9355V32.4227H91.5222V10.7104Z" fill="#000000"/>
<path d="M112.902 10.7104H110.315V32.4227H112.902V10.7104Z" fill="#000000"/>
<path d="M122.577 21.4539C124.266 22.9998 125.465 23.852 125.465 23.852L126.908 21.738C126.908 21.738 125.894 21.096 124.448 19.801C123.006 18.5097 122.668 16.8901 122.668 16.0304V11.356H120.07V16.0304C120.07 16.8901 119.729 18.5097 118.286 19.801C116.844 21.096 115.402 22.2582 115.402 22.2582L116.844 24.3685C116.844 24.3685 118.475 22.9924 120.165 21.4502C120.622 21.0333 121.026 20.5906 121.371 20.1294C121.716 20.5906 122.112 21.0333 122.573 21.4502L122.577 21.4539Z" fill="#000000"/>
<path d="M123.914 31.091V25.7856H121.327V31.3972C121.327 32.8435 122.014 33.2862 123.038 33.2862H134.965V31.091H123.917H123.914Z" fill="#000000"/>
<path d="M79.7912 11.6108C76.2018 11.6108 73.2954 14.5624 73.2954 18.2075C73.2954 21.8527 76.2054 24.8042 79.7912 24.8042C83.377 24.8042 86.2833 21.8527 86.2833 18.2075C86.2833 14.5624 83.377 11.6108 79.7912 11.6108ZM79.7912 22.1626C77.6405 22.1626 75.8966 20.388 75.8966 18.2075C75.8966 16.0271 77.6405 14.2525 79.7912 14.2525C81.9419 14.2525 83.6858 16.0234 83.6858 18.2075C83.6858 20.3917 81.9419 22.1626 79.7912 22.1626Z" fill="#000000"/>
<path d="M56.017 11.6108C52.424 11.6108 49.5176 14.5624 49.5176 18.2075C49.5176 21.8527 52.424 24.8042 56.017 24.8042C59.61 24.8042 62.5091 21.8527 62.5091 18.2075C62.5091 14.5624 59.6028 11.6108 56.017 11.6108ZM56.017 22.1626C53.8626 22.1626 52.1188 20.388 52.1188 18.2075C52.1188 16.0271 53.8626 14.2525 56.017 14.2525C58.1714 14.2525 59.9079 16.0234 59.9079 18.2075C59.9079 20.3917 58.1677 22.1626 56.017 22.1626Z" fill="#000000"/>
<path d="M21.6599 0C9.70008 0 0 9.85075 0 22C0 34.1493 9.70008 44 21.6599 44C33.6197 44 43.3234 34.1493 43.3234 22C43.3234 9.85075 33.6269 0 21.6599 0Z" fill="#000000"/>
<path d="M21.6599 44C33.6233 44 43.3234 34.1493 43.3234 22H0C0 34.1493 9.70008 44 21.6599 44Z" fill="#000000"/>
<path d="M21.6599 0C9.70008 0 0 9.85075 0 22H43.3234C43.3234 9.85075 33.6269 0 21.6599 0Z" fill="#000000"/>
<path d="M37.8741 27.6781V20.0189C37.8741 17.7241 35.905 16.8902 34.579 16.8902C32.9913 16.8902 31.2875 17.8975 31.2875 20.1148V27.6781H29.0786V19.9488C29.0786 16.5397 31.9087 14.6987 34.5681 14.6987C37.6634 14.6987 40.0902 16.9751 40.0902 19.8824V27.6781H37.8741Z" fill="#000000"/>
<path d="M25.191 23.4055C24.726 24.5788 23.4399 25.9143 21.2565 25.9586C19.1748 25.9586 17.2566 24.2393 16.9841 22.2102H27.745L27.7632 21.9187C27.8467 20.4319 27.5234 19.0852 26.8113 17.9341C25.9358 16.3846 24.0139 14.717 21.2456 14.6948C17.6816 14.7612 14.7861 17.746 14.7861 21.3505C14.7861 24.9551 17.6962 27.962 21.2746 27.962C24.0248 27.962 26.488 26.18 27.3999 23.5236L27.4398 23.4055H25.1874H25.191ZM21.2783 16.7019C22.9785 16.7019 24.9839 17.8013 25.5543 20.2068H17.0204C17.5545 17.8013 19.5635 16.7019 21.2783 16.7019Z" fill="#000000"/>
<path d="M13.8382 23.5496L13.751 23.712C13.395 24.3871 12.3014 25.9588 9.84917 25.9588C7.26612 25.9588 5.24981 23.9149 5.24981 21.3102C5.24981 18.425 7.58945 16.7021 9.84917 16.7021C11.4985 16.7021 12.9554 17.5802 13.7437 19.0522L13.8164 19.1888C14.038 18.3771 14.3831 17.6171 14.83 16.9345C13.602 15.5289 11.742 14.6987 9.80921 14.6987C6.12536 14.6987 3.12451 17.6835 3.12451 21.3544C3.12451 25.0254 6.05997 27.9659 9.80921 27.9659C11.8655 27.9659 13.5548 27.2095 14.83 25.7227C14.3977 25.0623 14.0634 24.3318 13.8382 23.5533V23.5496Z" fill="#000000"/>
<path d="M155.445 24.2803C155.445 24.2803 156.142 22.4503 156.142 20.0448V14.0753C156.142 12.8136 155.394 12.2749 154.075 12.2749H142.246V14.4037H153.632V20.4101C153.599 21.6645 153.229 23.4465 152.949 24.2803H155.441H155.445Z" fill="#000000"/>
<path d="M158.685 27.5161H139.703V29.6449H158.685V27.5161Z" fill="#000000"/>
<path d="M161.018 21.3872V23.516H169.261V25.9252H171.764V23.516H180V21.3872H161.018Z" fill="#000000"/>
<path d="M177.555 17.7865C177.555 17.7865 176.53 18.0632 174.848 18.0632H166.467V16.5136H177.05V12.6877C177.05 11.4001 176.57 10.7139 174.986 10.7139H163.964V12.8427H174.543V14.3848H163.964V18.362C163.964 19.764 164.625 20.1957 165.621 20.1957H174.826C176.389 20.1957 177.875 19.5242 177.875 19.5242L177.551 17.7902L177.555 17.7865Z" fill="#000000"/>
<path d="M174.547 26.9844H168.742C167.71 26.9844 166.925 26.8811 166.471 26.7999V24.6748H163.968V31.253C163.968 32.3746 164.505 33.1568 165.813 33.1568H177.054V24.6785H174.547V26.9881V26.9844ZM166.471 31.028V28.7221C167.049 28.9029 167.891 29.1132 168.763 29.1132H174.547V31.028H166.471Z" fill="#000000"/>
</svg>
